<svg width="207" height="170" viewBox="0 0 207 170" fill="none" xmlns="http://www.w3.org/2000/svg">
<rect x="95.0198" width="111.058" height="125.262" rx="20" fill="#DB3F1D"/>
<path d="M63.1333 93.7587L104.716 75.8296L104.947 111.062L63.1333 93.7587Z" fill="#DB3F1D"/>
<path d="M128.503 22.8809C128.503 25.3769 127.423 27.2729 125.263 28.5689C126.439 29.0009 127.423 29.7449 128.215 30.8009C129.007 31.8569 129.403 33.3569 129.403 35.3009C129.403 37.2209 128.683 38.7449 127.243 39.8729C125.827 41.0009 123.787 41.5649 121.123 41.5649H112.627C112.219 41.5649 111.883 41.4329 111.619 41.1689C111.355 40.8809 111.223 40.5089 111.223 40.0529V17.0129C111.223 16.7489 111.259 16.5809 111.331 16.5089C111.427 16.4129 111.607 16.3649 111.871 16.3649H120.079C125.695 16.3649 128.503 18.5369 128.503 22.8809ZM118.135 22.1969V26.9129H118.315C120.619 26.9129 121.771 26.1449 121.771 24.6089C121.771 23.7689 121.543 23.1569 121.087 22.7729C120.655 22.3889 119.923 22.1969 118.891 22.1969H118.135ZM118.135 31.1609V35.8409H118.783C119.815 35.8409 120.571 35.6489 121.051 35.2649C121.531 34.8809 121.771 34.2689 121.771 33.4289C121.771 32.5889 121.543 32.0009 121.087 31.6649C120.655 31.3289 119.923 31.1609 118.891 31.1609H118.135ZM131.842 39.4409V17.0489C131.842 16.5449 133.054 16.2929 135.478 16.2929C137.926 16.2929 139.15 16.5449 139.15 17.0489V34.6889H144.694C145.126 34.6889 145.426 35.2529 145.594 36.3809C145.666 36.9329 145.702 37.4969 145.702 38.0729C145.702 38.6489 145.666 39.2369 145.594 39.8369C145.402 40.9889 145.09 41.5649 144.658 41.5649H133.57C133.042 41.5649 132.622 41.3489 132.31 40.9169C131.998 40.4849 131.842 39.9929 131.842 39.4409ZM164.767 41.6369C162.679 41.6369 161.551 41.3009 161.383 40.6289L160.195 35.9849H154.471L153.427 40.4489C153.283 41.1929 152.131 41.5649 149.971 41.5649C148.819 41.5649 147.967 41.5049 147.415 41.3849C146.863 41.2409 146.587 41.1329 146.587 41.0609L152.959 16.6889C152.959 16.4969 154.603 16.4009 157.891 16.4009C161.179 16.4009 162.823 16.4969 162.823 16.6889L169.051 41.0969C169.051 41.2649 168.499 41.3969 167.395 41.4929C166.291 41.5889 165.415 41.6369 164.767 41.6369ZM155.371 31.4129H159.151L157.531 23.9609H157.315L155.371 31.4129ZM191.02 40.9529C191.02 41.3609 189.808 41.5649 187.384 41.5649C184.96 41.5649 183.748 41.3609 183.748 40.9529V32.6729H178.708V40.9529C178.708 41.3609 177.496 41.5649 175.072 41.5649C172.648 41.5649 171.436 41.3609 171.436 40.9529V17.0849C171.436 16.5809 172.648 16.3289 175.072 16.3289C177.496 16.3289 178.708 16.5809 178.708 17.0849V25.5449H183.748V17.1569C183.748 16.8209 184.348 16.5809 185.548 16.4369C186.172 16.3889 186.784 16.3649 187.384 16.3649L189.22 16.4369C190.42 16.5809 191.02 16.8209 191.02 17.1569V40.9529Z" fill="#D1D0CD"/>
<path d="M127.502 87.118C127.502 89.614 126.422 91.51 124.262 92.806C125.438 93.238 126.422 93.982 127.214 95.038C128.006 96.094 128.402 97.594 128.402 99.538C128.402 101.458 127.682 102.982 126.242 104.11C124.826 105.238 122.786 105.802 120.122 105.802H111.626C111.218 105.802 110.882 105.67 110.618 105.406C110.354 105.118 110.222 104.746 110.222 104.29V81.25C110.222 80.986 110.258 80.818 110.33 80.746C110.426 80.65 110.606 80.602 110.87 80.602H119.078C124.694 80.602 127.502 82.774 127.502 87.118ZM117.134 86.434V91.15H117.314C119.618 91.15 120.77 90.382 120.77 88.846C120.77 88.006 120.542 87.394 120.086 87.01C119.654 86.626 118.922 86.434 117.89 86.434H117.134ZM117.134 95.398V100.078H117.782C118.814 100.078 119.57 99.886 120.05 99.502C120.53 99.118 120.77 98.506 120.77 97.666C120.77 96.826 120.542 96.238 120.086 95.902C119.654 95.566 118.922 95.398 117.89 95.398H117.134ZM130.841 103.678V81.286C130.841 80.782 132.053 80.53 134.477 80.53C136.925 80.53 138.149 80.782 138.149 81.286V98.926H143.693C144.125 98.926 144.425 99.49 144.593 100.618C144.665 101.17 144.701 101.734 144.701 102.31C144.701 102.886 144.665 103.474 144.593 104.074C144.401 105.226 144.089 105.802 143.657 105.802H132.569C132.041 105.802 131.621 105.586 131.309 105.154C130.997 104.722 130.841 104.23 130.841 103.678ZM163.766 105.874C161.678 105.874 160.55 105.538 160.382 104.866L159.194 100.222H153.47L152.426 104.686C152.282 105.43 151.13 105.802 148.97 105.802C147.818 105.802 146.966 105.742 146.414 105.622C145.862 105.478 145.586 105.37 145.586 105.298L151.958 80.926C151.958 80.734 153.602 80.638 156.89 80.638C160.178 80.638 161.822 80.734 161.822 80.926L168.05 105.334C168.05 105.502 167.498 105.634 166.394 105.73C165.29 105.826 164.414 105.874 163.766 105.874ZM154.37 95.65H158.15L156.53 88.198H156.314L154.37 95.65ZM190.02 105.19C190.02 105.598 188.808 105.802 186.384 105.802C183.96 105.802 182.748 105.598 182.748 105.19V96.91H177.708V105.19C177.708 105.598 176.496 105.802 174.072 105.802C171.648 105.802 170.436 105.598 170.436 105.19V81.322C170.436 80.818 171.648 80.566 174.072 80.566C176.496 80.566 177.708 80.818 177.708 81.322V89.782H182.748V81.394C182.748 81.058 183.348 80.818 184.548 80.674C185.172 80.626 185.784 80.602 186.384 80.602L188.22 80.674C189.42 80.818 190.02 81.058 190.02 81.394V105.19Z" fill="#D1D0CD"/>
<path d="M127.502 54.9995C127.502 57.4955 126.422 59.3915 124.262 60.6875C125.438 61.1195 126.422 61.8635 127.214 62.9195C128.006 63.9755 128.402 65.4755 128.402 67.4195C128.402 69.3395 127.682 70.8635 126.242 71.9915C124.826 73.1195 122.786 73.6835 120.122 73.6835H111.626C111.218 73.6835 110.882 73.5515 110.618 73.2875C110.354 72.9995 110.222 72.6275 110.222 72.1715V49.1315C110.222 48.8675 110.258 48.6995 110.33 48.6275C110.426 48.5315 110.606 48.4835 110.87 48.4835H119.078C124.694 48.4835 127.502 50.6555 127.502 54.9995ZM117.134 54.3155V59.0315H117.314C119.618 59.0315 120.77 58.2635 120.77 56.7275C120.77 55.8875 120.542 55.2755 120.086 54.8915C119.654 54.5075 118.922 54.3155 117.89 54.3155H117.134ZM117.134 63.2795V67.9595H117.782C118.814 67.9595 119.57 67.7675 120.05 67.3835C120.53 66.9995 120.77 66.3875 120.77 65.5475C120.77 64.7075 120.542 64.1195 120.086 63.7835C119.654 63.4475 118.922 63.2795 117.89 63.2795H117.134ZM130.841 71.5595V49.1675C130.841 48.6635 132.053 48.4115 134.477 48.4115C136.925 48.4115 138.149 48.6635 138.149 49.1675V66.8075H143.693C144.125 66.8075 144.425 67.3715 144.593 68.4995C144.665 69.0515 144.701 69.6155 144.701 70.1915C144.701 70.7675 144.665 71.3555 144.593 71.9555C144.401 73.1075 144.089 73.6835 143.657 73.6835H132.569C132.041 73.6835 131.621 73.4675 131.309 73.0355C130.997 72.6035 130.841 72.1115 130.841 71.5595ZM163.766 73.7555C161.678 73.7555 160.55 73.4195 160.382 72.7475L159.194 68.1035H153.47L152.426 72.5675C152.282 73.3115 151.13 73.6835 148.97 73.6835C147.818 73.6835 146.966 73.6235 146.414 73.5035C145.862 73.3595 145.586 73.2515 145.586 73.1795L151.958 48.8075C151.958 48.6155 153.602 48.5195 156.89 48.5195C160.178 48.5195 161.822 48.6155 161.822 48.8075L168.05 73.2155C168.05 73.3835 167.498 73.5155 166.394 73.6115C165.29 73.7075 164.414 73.7555 163.766 73.7555ZM154.37 63.5315H158.15L156.53 56.0795H156.314L154.37 63.5315ZM190.02 73.0715C190.02 73.4795 188.808 73.6835 186.384 73.6835C183.96 73.6835 182.748 73.4795 182.748 73.0715V64.7915H177.708V73.0715C177.708 73.4795 176.496 73.6835 174.072 73.6835C171.648 73.6835 170.436 73.4795 170.436 73.0715V49.2035C170.436 48.6995 171.648 48.4475 174.072 48.4475C176.496 48.4475 177.708 48.6995 177.708 49.2035V57.6635H182.748V49.2755C182.748 48.9395 183.348 48.6995 184.548 48.5555C185.172 48.5075 185.784 48.4835 186.384 48.4835L188.22 48.5555C189.42 48.6995 190.02 48.9395 190.02 49.2755V73.0715Z" fill="#D1D0CD"/>
<path d="M19.62 88.07L1.35 97.25V67.73L36.72 48.2H50.94V167H19.62V88.07ZM77.2988 169.16C72.3788 169.16 68.1488 167.42 64.6088 163.94C61.1288 160.4 59.3888 156.17 59.3888 151.25C59.3888 146.21 61.1288 141.95 64.6088 138.47C68.1488 134.93 72.3788 133.16 77.2988 133.16C82.2788 133.16 86.5088 134.93 89.9888 138.47C93.5288 141.95 95.2988 146.21 95.2988 151.25C95.2988 156.17 93.5288 160.4 89.9888 163.94C86.5088 167.42 82.2788 169.16 77.2988 169.16Z" fill="#DB3F1D"/>
</svg>
