<svg xmlns="http://www.w3.org/2000/svg" version="1.1" xmlns:xlink="http://www.w3.org/1999/xlink" xmlns:svgjs="http://svgjs.dev/svgjs" width="1000" height="1000"><g clip-path="url(#SvgjsClipPath1018)"><rect width="1000" height="1000" fill="#ffffff"></rect><g transform="matrix(4.761904761904762,0,0,4.761904761904762,266.66666666666663,200)"><svg xmlns="http://www.w3.org/2000/svg" version="1.1" xmlns:xlink="http://www.w3.org/1999/xlink" xmlns:svgjs="http://svgjs.dev/svgjs" width="98" height="126"><svg width="98" height="126" viewBox="0 0 98 126" fill="none" xmlns="http://www.w3.org/2000/svg">
<path d="M19.7092 41.439L0.830158 50.925V20.421L37.3792 0.239995H52.0732V123H19.7092V41.439ZM79.3105 125.232C74.2265 125.232 69.8555 123.434 66.1975 119.838C62.6015 116.18 60.8035 111.809 60.8035 106.725C60.8035 101.517 62.6015 97.115 66.1975 93.519C69.8555 89.861 74.2265 88.032 79.3105 88.032C84.4565 88.032 88.8275 89.861 92.4235 93.519C96.0815 97.115 97.9105 101.517 97.9105 106.725C97.9105 111.809 96.0815 116.18 92.4235 119.838C88.8275 123.434 84.4565 125.232 79.3105 125.232Z" fill="#DE3E1D"></path>
</svg></svg></g></g><defs><clipPath id="SvgjsClipPath1018"><rect width="1000" height="1000" x="0" y="0" rx="350" ry="350"></rect></clipPath></defs></svg>